<?xml version="1.0" encoding="UTF-8" standalone="no"?>
<!-- Created with Inkscape (http://www.inkscape.org/) -->

<svg
   xmlns:dc="http://purl.org/dc/elements/1.1/"
   xmlns:cc="http://creativecommons.org/ns#"
   xmlns:rdf="http://www.w3.org/1999/02/22-rdf-syntax-ns#"
   xmlns:svg="http://www.w3.org/2000/svg"
   xmlns="http://www.w3.org/2000/svg"
   xmlns:sodipodi="http://sodipodi.sourceforge.net/DTD/sodipodi-0.dtd"
   xmlns:inkscape="http://www.inkscape.org/namespaces/inkscape"
   width="155"
   height="64"
   viewBox="0 0 41.010416 16.933334"
   version="1.1"
   id="svg844"
   inkscape:version="0.92.4 (5da689c313, 2019-01-14)"
   sodipodi:docname="neo.svg">
  <defs
     id="defs838" />
  <sodipodi:namedview
     id="base"
     pagecolor="#ffffff"
     bordercolor="#666666"
     borderopacity="1.0"
     inkscape:pageopacity="0.0"
     inkscape:pageshadow="2"
     inkscape:zoom="5.6"
     inkscape:cx="79.831309"
     inkscape:cy="51.79609"
     inkscape:document-units="mm"
     inkscape:current-layer="layer1"
     showgrid="false"
     units="px"
     borderlayer="true"
     inkscape:showpageshadow="false"
     fit-margin-top="0"
     fit-margin-left="0"
     fit-margin-right="0"
     fit-margin-bottom="0"
     inkscape:window-width="2560"
     inkscape:window-height="998"
     inkscape:window-x="1920"
     inkscape:window-y="0"
     inkscape:window-maximized="1">
    <sodipodi:guide
       position="210.00001,0.0054803693"
       orientation="-64,0"
       id="guide2008"
       inkscape:locked="false" />
    <sodipodi:guide
       position="0,0"
       orientation="0,197.30231"
       id="guide2014"
       inkscape:locked="false" />
    <sodipodi:guide
       position="41.010417,27.167039"
       orientation="-63.902287,0"
       id="guide2016"
       inkscape:locked="false" />
    <sodipodi:guide
       position="52.202903,16.90748"
       orientation="0,-197.30231"
       id="guide2018"
       inkscape:locked="false" />
    <sodipodi:guide
       position="0,16.90748"
       orientation="63.902287,0"
       id="guide2020"
       inkscape:locked="false" />
  </sodipodi:namedview>
  <metadata
     id="metadata841">
    <rdf:RDF>
      <cc:Work
         rdf:about="">
        <dc:format>image/svg+xml</dc:format>
        <dc:type
           rdf:resource="http://purl.org/dc/dcmitype/StillImage" />
        <dc:title></dc:title>
      </cc:Work>
    </rdf:RDF>
  </metadata>
  <g
     inkscape:label="Calque 1"
     inkscape:groupmode="layer"
     id="layer1"
     transform="translate(3.2e-8,-280.07213)">
    <g
       transform="matrix(0.0910517,0,0,0.0910517,-2.3400288,265.83421)"
       id="g1977">
      <path
         inkscape:connector-curvature="0"
         style="fill:#ffffff;fill-opacity:1"
         id="path6"
         d="m 403.2,321 c -39.3,0 -71.3,-32 -71.3,-71.3 0,-39.3 32,-71.3 71.3,-71.3 10.7,0 21,2.3 30.6,6.9 4.5,2.1 6.4,7.5 4.2,12 -2.1,4.5 -7.5,6.4 -12,4.2 -7.2,-3.4 -14.9,-5.2 -22.9,-5.2 -29.4,0 -53.3,23.9 -53.3,53.3 0,29.4 23.9,53.3 53.3,53.3 29.4,0 53.3,-23.9 53.3,-53.3 0,-6.1 -0.3,-9.1 -1.8,-13.9 -1.5,-4.7 1.1,-9.8 5.8,-11.3 4.7,-1.5 9.8,1.1 11.3,5.8 2.2,7 2.6,12 2.6,19.3 0.2,39.5 -31.8,71.5 -71.1,71.5 z" />
      <circle
         style="fill:#ffed4a;fill-opacity:1"
         r="9.5"
         cy="208.10001"
         cx="452.29999"
         class="st0"
         id="bulle" />
      <path
         inkscape:connector-curvature="0"
         style="fill:#ffffff;fill-opacity:1"
         d="m 25.7,186.8 c 0,-2.2 0.8,-4 2.3,-5.5 1.5,-1.5 3.4,-2.3 5.5,-2.3 2.2,0 4,0.8 5.5,2.3 1.5,1.5 2.3,3.4 2.3,5.5 v 14.6 c 15.5,-15 32,-22.4 49.7,-22.4 18.1,0 33.5,6.4 46.1,19.2 12.9,12.8 19.3,28.2 19.3,46.3 v 67.9 c 0,2.2 -0.8,4 -2.3,5.5 -1.6,1.5 -3.4,2.3 -5.6,2.3 -2.2,0 -4,-0.8 -5.5,-2.3 -1.5,-1.5 -2.3,-3.4 -2.3,-5.5 v -68 c 0,-13.9 -4.9,-25.5 -14.6,-35 -9.7,-9.8 -21.4,-14.7 -35,-14.7 -13.6,0 -25.4,4.9 -35.3,14.7 -9.7,9.6 -14.5,21.3 -14.5,35 v 67.9 c 0,2.2 -0.8,4 -2.3,5.5 -1.5,1.5 -3.4,2.3 -5.5,2.3 -2.2,0 -4,-0.8 -5.5,-2.3 -1.5,-1.5 -2.3,-3.4 -2.3,-5.5 z"
         id="N" />
      <path
         inkscape:connector-curvature="0"
         style="fill:#ffffff;fill-opacity:1"
         d="m 298,279.6 c 2.1,-0.6 4.1,-0.4 6,0.6 1.9,1 3.2,2.6 3.8,4.7 0.6,2.1 0.5,4 -0.3,5.8 -9.2,14.7 -22.2,24.6 -39,29.7 -18.6,5.7 -36.6,4 -53.8,-5.1 -17.2,-9.1 -28.7,-23 -34.4,-41.7 -5.7,-18.6 -4,-36.6 5.1,-53.8 9.1,-17.2 23,-28.7 41.7,-34.4 18.6,-5.7 36.6,-4 53.8,5.1 17.2,9.1 28.7,23 34.4,41.7 0.6,2.1 0.5,4.1 -0.5,6 -1,1.9 -2.5,3.2 -4.6,3.8 l -112.4,34.5 c 6.1,11.3 14.2,19.6 24.3,25 13.4,7.1 27.4,8.5 41.8,4 6.6,-2 12.4,-5 17.3,-8.8 5,-3.9 9.2,-8.5 12.6,-13.9 1,-1.6 2.4,-2.6 4.2,-3.2 z m -0.3,-50.1 c -5.9,-11.3 -14,-19.6 -24.1,-25 -13.4,-7.1 -27.4,-8.5 -41.8,-4 -14.5,4.4 -25.3,13.4 -32.4,26.8 -5.3,10.1 -7.4,21.5 -6.1,34.3 z"
         class="st0"
         id="E" />
    </g>
  </g>
</svg>
